<?xml version="1.0" encoding="UTF-8"?>
<svg width="24px" height="24px" viewBox="0 0 24 24" version="1.1" xmlns="http://www.w3.org/2000/svg" xmlns:xlink="http://www.w3.org/1999/xlink">
    <title>Iconly/Curved/Activity</title>
    <g id="Iconly/Curved/Activity" stroke="none" stroke-width="1" fill="none" fill-rule="evenodd" stroke-linecap="round" stroke-linejoin="round">
        <g id="Activity" transform="translate(2.449500, 2.350000)" stroke="#000000" stroke-width="1.5">
            <polyline id="Stroke-1" points="4.4676 12.5039 7.4606 8.6149 10.8746 11.2949 13.8036 7.5149"></polyline>
            <path d="M17.2176,2.48689958e-14 C18.2796,2.48689958e-14 19.1396,0.86 19.1396,1.922 C19.1396,2.983 18.2796,3.844 17.2176,3.844 C16.1556,3.844 15.2956,2.983 15.2956,1.922 C15.2956,0.86 16.1556,2.48689958e-14 17.2176,2.48689958e-14 Z" id="Stroke-2"></path>
            <path d="M18.306,6.919 C18.439,7.814 18.5,8.822 18.5,9.953 C18.5,16.891 16.188,19.203 9.25,19.203 C2.313,19.203 0,16.891 0,9.953 C0,3.016 2.313,0.703 9.25,0.703 C10.36,0.703 11.351,0.762 12.233,0.89" id="Stroke-4"></path>
        </g>
    </g>
</svg>