<?xml version="1.0" encoding="UTF-8"?>
<svg width="24px" height="24px" viewBox="0 0 24 24" version="1.1" xmlns="http://www.w3.org/2000/svg" xmlns:xlink="http://www.w3.org/1999/xlink">
    <title>Iconly/Curved/Buy</title>
    <g id="Iconly/Curved/Buy" stroke="none" stroke-width="1" fill="none" fill-rule="evenodd" stroke-linecap="round" stroke-linejoin="round">
        <g id="Buy" transform="translate(3.650200, 2.850200)" stroke="#000000" stroke-width="1.5">
            <path d="M2.044,3.58024493 C7.3705141,2.243 13.9926469,2.32498848 15.5231061,4.06777179 C17.0535652,5.8105551 17.0220031,11.638 15.2330031,13.237 C13.4450031,14.836 5.68,14.988 3.22,13.237 C0.621,11.386 2.129,5.692 2.044,2.243 C2.095,0.313 -1.13686838e-13,0 -1.13686838e-13,0" id="Stroke-1"></path>
            <line x1="10.5059" y1="7.8696" x2="13.2789" y2="7.8696" id="Stroke-3"></line>
            <path d="M3.6138,17.2773 C3.9138,17.2773 4.1578,17.5213 4.1578,17.8213 C4.1578,18.1223 3.9138,18.3663 3.6138,18.3663 C3.3128,18.3663 3.0688,18.1223 3.0688,17.8213 C3.0688,17.5213 3.3128,17.2773 3.6138,17.2773 Z" id="Stroke-5" fill="#000000"></path>
            <path d="M13.9453,17.2773 C14.2463,17.2773 14.4903,17.5213 14.4903,17.8213 C14.4903,18.1223 14.2463,18.3663 13.9453,18.3663 C13.6453,18.3663 13.4013,18.1223 13.4013,17.8213 C13.4013,17.5213 13.6453,17.2773 13.9453,17.2773 Z" id="Stroke-7" fill="#000000"></path>
        </g>
    </g>
</svg>