<?xml version="1.0" encoding="UTF-8"?>
<svg width="24px" height="24px" viewBox="0 0 24 24" version="1.1" xmlns="http://www.w3.org/2000/svg" xmlns:xlink="http://www.w3.org/1999/xlink">
    <title>Iconly/Curved/Calendar</title>
    <g id="Iconly/Curved/Calendar" stroke="none" stroke-width="1" fill="none" fill-rule="evenodd" stroke-linecap="round" stroke-linejoin="round">
        <g id="Calendar" transform="translate(2.749800, 2.050100)" stroke="#000000" stroke-width="1.5">
            <path d="M-1.0658141e-14,10.7255 C-1.0658141e-14,3.7695 2.319,1.4515 9.274,1.4515 C16.23,1.4515 18.549,3.7695 18.549,10.7255 C18.549,17.6815 16.23,19.9995 9.274,19.9995 C2.319,19.9995 -1.0658141e-14,17.6815 -1.0658141e-14,10.7255 Z" id="Stroke-1"></path>
            <line x1="0.2754" y1="7.2739" x2="18.2834" y2="7.2739" id="Stroke-3"></line>
            <line x1="13.6787" y1="11.2109" x2="13.6877" y2="11.2109" id="Stroke-5"></line>
            <line x1="9.2793" y1="11.2109" x2="9.2883" y2="11.2109" id="Stroke-7"></line>
            <line x1="4.8716" y1="11.2109" x2="4.8806" y2="11.2109" id="Stroke-9"></line>
            <line x1="13.6787" y1="15.0629" x2="13.6877" y2="15.0629" id="Stroke-11"></line>
            <line x1="9.2793" y1="15.0629" x2="9.2883" y2="15.0629" id="Stroke-13"></line>
            <line x1="4.8716" y1="15.0629" x2="4.8806" y2="15.0629" id="Stroke-15"></line>
            <line x1="13.2832" y1="2.84217094e-14" x2="13.2832" y2="3.262" id="Stroke-17"></line>
            <line x1="5.2749" y1="2.84217094e-14" x2="5.2749" y2="3.262" id="Stroke-19"></line>
        </g>
    </g>
</svg>