<?xml version="1.0" encoding="UTF-8"?>
<svg width="24px" height="24px" viewBox="0 0 24 24" version="1.1" xmlns="http://www.w3.org/2000/svg" xmlns:xlink="http://www.w3.org/1999/xlink">
    <title>Iconly/Curved/Camera</title>
    <g id="Iconly/Curved/Camera" stroke="none" stroke-width="1" fill="none" fill-rule="evenodd" stroke-linecap="round" stroke-linejoin="round">
        <g id="Camera" transform="translate(2.500000, 3.042105)" stroke="#000000" stroke-width="1.5">
            <path d="M12.9381053,9.456 C12.9381053,7.71915789 11.5296842,6.31073684 9.79284211,6.31073684 C8.056,6.31073684 6.64757895,7.71915789 6.64757895,9.456 C6.64757895,11.1928421 8.056,12.6012632 9.79284211,12.6012632 C11.5296842,12.6012632 12.9381053,11.1928421 12.9381053,9.456 Z" id="Stroke-2"></path>
            <path d="M9.79252632,17.158 C17.8377895,17.158 18.7956842,14.7474737 18.7956842,9.52431579 C18.7956842,5.86326316 18.3114737,3.90431579 15.262,3.06221053 C14.982,2.97378947 14.6714737,2.80536842 14.4198947,2.52852632 C14.0135789,2.08326316 13.7167368,0.715894737 12.7356842,0.302210526 C11.7546316,-0.110421053 7.81463158,-0.0914736842 6.84936842,0.302210526 C5.88515789,0.696947368 5.57147368,2.08326316 5.16515789,2.52852632 C4.91357895,2.80536842 4.60410526,2.97378947 4.32305263,3.06221053 C1.27357895,3.90431579 0.789368421,5.86326316 0.789368421,9.52431579 C0.789368421,14.7474737 1.74726316,17.158 9.79252632,17.158 Z" id="Stroke-4"></path>
            <line x1="14.7045" y1="5.957895" x2="14.7135" y2="5.957895" id="Stroke-11"></line>
        </g>
    </g>
</svg>