<?xml version="1.0" encoding="UTF-8"?>
<svg width="24px" height="24px" viewBox="0 0 24 24" version="1.1" xmlns="http://www.w3.org/2000/svg" xmlns:xlink="http://www.w3.org/1999/xlink">
    <title>Iconly/Curved/Category</title>
    <g id="Iconly/Curved/Category" stroke="none" stroke-width="1" fill="none" fill-rule="evenodd" stroke-linecap="round" stroke-linejoin="round">
        <g id="Category" transform="translate(3.000000, 3.000000)" stroke="#000000" stroke-width="1.5">
            <path d="M18.00036,3.6738 C18.00036,5.7024 16.35516,7.3476 14.32656,7.3476 C12.29796,7.3476 10.65366,5.7024 10.65366,3.6738 C10.65366,1.6452 12.29796,-6.39488462e-15 14.32656,-6.39488462e-15 C16.35516,-6.39488462e-15 18.00036,1.6452 18.00036,3.6738 Z" id="Stroke-1"></path>
            <path d="M7.3467,3.6738 C7.3467,5.7024 5.7024,7.3476 3.6729,7.3476 C1.6452,7.3476 4.79616347e-15,5.7024 4.79616347e-15,3.6738 C4.79616347e-15,1.6452 1.6452,-6.39488462e-15 3.6729,-6.39488462e-15 C5.7024,-6.39488462e-15 7.3467,1.6452 7.3467,3.6738 Z" id="Stroke-3"></path>
            <path d="M18.00036,14.26194 C18.00036,16.29054 16.35516,17.93484 14.32656,17.93484 C12.29796,17.93484 10.65366,16.29054 10.65366,14.26194 C10.65366,12.23334 12.29796,10.58814 14.32656,10.58814 C16.35516,10.58814 18.00036,12.23334 18.00036,14.26194 Z" id="Stroke-5"></path>
            <path d="M7.3467,14.26194 C7.3467,16.29054 5.7024,17.93484 3.6729,17.93484 C1.6452,17.93484 4.79616347e-15,16.29054 4.79616347e-15,14.26194 C4.79616347e-15,12.23334 1.6452,10.58814 3.6729,10.58814 C5.7024,10.58814 7.3467,12.23334 7.3467,14.26194 Z" id="Stroke-7"></path>
        </g>
    </g>
</svg>