<?xml version="1.0" encoding="UTF-8"?>
<svg width="24px" height="24px" viewBox="0 0 24 24" version="1.1" xmlns="http://www.w3.org/2000/svg" xmlns:xlink="http://www.w3.org/1999/xlink">
    <title>Iconly/Curved/Edit Square</title>
    <g id="Iconly/Curved/Edit-Square" stroke="none" stroke-width="1" fill="none" fill-rule="evenodd" stroke-linecap="round" stroke-linejoin="round">
        <g id="Edit-Square" transform="translate(2.000000, 2.000000)" stroke="#000000" stroke-width="1.5">
            <path d="M10.0002,0.7501 C3.0632,0.7501 0.7502,3.0631 0.7502,10.0001 C0.7502,16.9371 3.0632,19.2501 10.0002,19.2501 C16.9372,19.2501 19.2502,16.9371 19.2502,10.0001" id="Stroke-1"></path>
            <path d="M17.5285,2.3038 L17.5285,2.3038 C16.5355,1.4248 15.0185,1.5168 14.1395,2.5098 C14.1395,2.5098 9.7705,7.4448 8.2555,9.1578 C6.7385,10.8698 7.8505,13.2348 7.8505,13.2348 C7.8505,13.2348 10.3545,14.0278 11.8485,12.3398 C13.3435,10.6518 17.7345,5.6928 17.7345,5.6928 C18.6135,4.6998 18.5205,3.1828 17.5285,2.3038 Z" id="Stroke-3"></path>
            <line x1="13.009" y1="3.8008" x2="16.604" y2="6.9838" id="Stroke-5"></line>
        </g>
    </g>
</svg>