<?xml version="1.0" encoding="UTF-8"?>
<svg width="24px" height="24px" viewBox="0 0 24 24" version="1.1" xmlns="http://www.w3.org/2000/svg" xmlns:xlink="http://www.w3.org/1999/xlink">
    <title>Iconly/Curved/Image 2</title>
    <g id="Iconly/Curved/Image-2" stroke="none" stroke-width="1" fill="none" fill-rule="evenodd" stroke-linecap="round" stroke-linejoin="round">
        <g id="Image-2" transform="translate(2.000000, 2.000000)" stroke="#000000" stroke-width="1.5">
            <path d="M0.75,10.0001 C0.75,16.9371 3.063,19.2501 10,19.2501 C16.937,19.2501 19.25,16.9371 19.25,10.0001 C19.25,3.0631 16.937,0.7501 10,0.7501 C3.063,0.7501 0.75,3.0631 0.75,10.0001 Z" id="Stroke-1"></path>
            <path d="M8.5986,6.7842 C8.5986,7.7572 7.8106,8.5452 6.8376,8.5452 C5.8656,8.5452 5.0766,7.7572 5.0766,6.7842 C5.0766,5.8112 5.8656,5.0232 6.8376,5.0232 C7.8106,5.0232 8.5986,5.8112 8.5986,6.7842 Z" id="Stroke-3"></path>
            <path d="M19.1201,12.6666 C18.2391,11.7606 16.9931,9.9296 14.7041,9.9296 C12.4151,9.9296 12.3651,13.9676 10.0291,13.9676 C7.6921,13.9676 6.7511,12.5966 5.2281,13.3126 C3.7061,14.0276 2.4661,16.8736 2.4661,16.8736" id="Stroke-5"></path>
        </g>
    </g>
</svg>