<?xml version="1.0" encoding="UTF-8"?>
<svg width="24px" height="24px" viewBox="0 0 24 24" version="1.1" xmlns="http://www.w3.org/2000/svg" xmlns:xlink="http://www.w3.org/1999/xlink">
    <title>Iconly/Curved/Profile</title>
    <g id="Iconly/Curved/Profile" stroke="none" stroke-width="1" fill="none" fill-rule="evenodd" stroke-linecap="round" stroke-linejoin="round">
        <g id="Profile" transform="translate(5.000000, 2.400000)" stroke="#000000" stroke-width="1.5">
            <path d="M6.84454545,19.261909 C3.15272727,19.261909 -8.52651283e-14,18.6874153 -8.52651283e-14,16.3866334 C-8.52651283e-14,14.0858516 3.13272727,11.961909 6.84454545,11.961909 C10.5363636,11.961909 13.6890909,14.0652671 13.6890909,16.366049 C13.6890909,18.6658952 10.5563636,19.261909 6.84454545,19.261909 Z" id="Stroke-1"></path>
            <path d="M6.83729838,8.77363636 C9.26002565,8.77363636 11.223662,6.81 11.223662,4.38727273 C11.223662,1.96454545 9.26002565,-1.0658141e-14 6.83729838,-1.0658141e-14 C4.41457111,-1.0658141e-14 2.45,1.96454545 2.45,4.38727273 C2.44184383,6.80181818 4.39184383,8.76545455 6.80638929,8.77363636 C6.81729838,8.77363636 6.82729838,8.77363636 6.83729838,8.77363636 Z" id="Stroke-3"></path>
        </g>
    </g>
</svg>