<?xml version="1.0" encoding="UTF-8"?>
<svg width="24px" height="24px" viewBox="0 0 24 24" version="1.1" xmlns="http://www.w3.org/2000/svg" xmlns:xlink="http://www.w3.org/1999/xlink">
    <title>Iconly/Curved/Setting</title>
    <g id="Iconly/Curved/Setting" stroke="none" stroke-width="1" fill="none" fill-rule="evenodd" stroke-linecap="round" stroke-linejoin="round">
        <g id="Setting" transform="translate(3.500000, 2.500000)" stroke="#000000" stroke-width="1.5">
            <path d="M8.5,7 C9.88088012,7 11,8.11911988 11,9.5 C11,10.8808801 9.88088012,12 8.5,12 C7.11911988,12 6,10.8808801 6,9.5 C6,8.11911988 7.11911988,7 8.5,7 Z" id="Stroke-1"></path>
            <path d="M16.6680023,4.75024695 L16.6680023,4.75024695 C15.9844554,3.55799324 14.4712377,3.15003899 13.2885153,3.83852352 C12.2597626,4.43613205 10.9740669,3.68838056 10.9740669,2.49217572 C10.9740669,1.11619444 9.86587758,0 8.4997646,0 L8.4997646,0 C7.13365161,0 6.02546233,1.11619444 6.02546233,2.49217572 C6.02546233,3.68838056 4.73976662,4.43613205 3.71199461,3.83852352 C2.52829154,3.15003899 1.01507378,3.55799324 0.331526939,4.75024695 C-0.351039204,5.94250065 0.053989269,7.46664934 1.23769234,8.15414609 C2.26546435,8.7527424 2.26546435,10.2472576 1.23769234,10.8458539 C0.053989269,11.5343384 -0.351039204,13.0584871 0.331526939,14.2497531 C1.01507378,15.4420068 2.52829154,15.849961 3.71101391,15.1624643 L3.71199461,15.1624643 C4.73976662,14.5638679 6.02546233,15.3116194 6.02546233,16.5078243 L6.02546233,16.5078243 C6.02546233,17.8838056 7.13365161,19 8.4997646,19 L8.4997646,19 C9.86587758,19 10.9740669,17.8838056 10.9740669,16.5078243 L10.9740669,16.5078243 C10.9740669,15.3116194 12.2597626,14.5638679 13.2885153,15.1624643 C14.4712377,15.849961 15.9844554,15.4420068 16.6680023,14.2497531 C17.3515491,13.0584871 16.9455399,11.5343384 15.7628176,10.8458539 L15.7618369,10.8458539 C14.7340648,10.2472576 14.7340648,8.7527424 15.7628176,8.15414609 C16.9455399,7.46664934 17.3515491,5.94250065 16.6680023,4.75024695 Z" id="Stroke-3"></path>
        </g>
    </g>
</svg>