<?xml version="1.0" encoding="UTF-8"?>
<svg width="24px" height="24px" viewBox="0 0 24 24" version="1.1" xmlns="http://www.w3.org/2000/svg" xmlns:xlink="http://www.w3.org/1999/xlink">
    <title>Iconly/Curved/Ticket Star</title>
    <g id="Iconly/Curved/Ticket-Star" stroke="none" stroke-width="1" fill="none" fill-rule="evenodd" stroke-linecap="round" stroke-linejoin="round">
        <g id="Ticket-Star" transform="translate(2.649900, 3.410905)" stroke="#000000" stroke-width="1.5">
            <path d="M18.79,10.5830526 C16.129,10.5830526 16.129,6.46863158 18.79,6.46863158 C18.79,1.70147368 18.79,1.42108547e-14 9.395,1.42108547e-14 C-1.95399252e-14,1.42108547e-14 -1.95399252e-14,1.70147368 -1.95399252e-14,6.46863158 C2.661,6.46863158 2.661,10.5830526 -1.95399252e-14,10.5830526 C-1.95399252e-14,15.3511579 -1.95399252e-14,17.0526316 9.395,17.0526316 C18.79,17.0526316 18.79,15.3511579 18.79,10.5830526 Z" id="Stroke-1"></path>
            <path d="M9.39499975,5.76019 C8.71199975,5.76019 8.64699975,6.84966368 8.24099975,7.23524263 C7.83399975,7.61987421 6.57099975,7.18029526 6.39499975,7.86334789 C6.21999975,8.54734789 7.35699975,8.77945316 7.49799975,9.36587421 C7.63799975,9.95229526 6.94399975,10.7765058 7.53699975,11.1876637 C8.13099975,11.5969268 8.76999975,10.6694532 9.39499975,10.6694532 C10.0199998,10.6694532 10.6589998,11.5969268 11.2529998,11.1876637 C11.8469998,10.7765058 11.1519998,9.95229526 11.2919998,9.36587421 C11.4329998,8.77945316 12.5699998,8.54734789 12.3949998,7.86334789 C12.2189998,7.18029526 10.9559998,7.61987421 10.5489998,7.23524263 C10.1429998,6.84966368 10.0779998,5.76019 9.39499975,5.76019 Z" id="Stroke-3"></path>
        </g>
    </g>
</svg>