<?xml version="1.0" encoding="UTF-8"?>
<svg width="24px" height="24px" viewBox="0 0 24 24" version="1.1" xmlns="http://www.w3.org/2000/svg" xmlns:xlink="http://www.w3.org/1999/xlink">
    <title>Iconly/Curved/2 User</title>
    <g id="Iconly/Curved/2-User" stroke="none" stroke-width="1" fill="none" fill-rule="evenodd" stroke-linecap="round" stroke-linejoin="round">
        <g id="2-User" transform="translate(2.749500, 2.549500)" stroke="#000000" stroke-width="1.5">
            <path d="M6.809,18.9067 C3.137,18.9067 9.41469125e-14,18.3517 9.41469125e-14,16.1277 C9.41469125e-14,13.9037 3.117,11.8997 6.809,11.8997 C10.481,11.8997 13.617,13.8847 13.617,16.1077 C13.617,18.3307 10.501,18.9067 6.809,18.9067 Z" id="Stroke-1"></path>
            <path d="M6.809,8.728 C9.219,8.728 11.173,6.774 11.173,4.364 C11.173,1.954 9.219,-2.48689958e-14 6.809,-2.48689958e-14 C4.399,-2.48689958e-14 2.44496883,1.954 2.44496883,4.364 C2.436,6.766 4.377,8.72 6.778,8.728 L6.809,8.728 Z" id="Stroke-3"></path>
            <path d="M14.0517,7.5293 C15.4547,7.1543 16.4887007,5.8753 16.4887007,4.3533 C16.4897,2.7653 15.3627,1.4393 13.8647,1.1323" id="Stroke-5"></path>
            <path d="M14.7113,11.104 C16.6993,11.104 18.3973,12.452 18.3973,13.655 C18.3973,14.364 17.8123,15.092 16.9223,15.301" id="Stroke-7"></path>
        </g>
    </g>
</svg>