<?xml version="1.0" encoding="UTF-8"?>
<svg width="24px" height="24px" viewBox="0 0 24 24" version="1.1" xmlns="http://www.w3.org/2000/svg" xmlns:xlink="http://www.w3.org/1999/xlink">
    <title>Iconly/Curved/Volume Up</title>
    <g id="Iconly/Curved/Volume-Up" stroke="none" stroke-width="1" fill="none" fill-rule="evenodd" stroke-linecap="round" stroke-linejoin="round">
        <g id="Volume-Up" transform="translate(2.000000, 4.500000)" stroke="#000000" stroke-width="1.5">
            <path d="M17.4356364,1.27445455 C19.9292727,4.99445455 19.9365455,9.90354545 17.4356364,13.6317273" id="Stroke-1"></path>
            <path d="M14.9889091,3.71718182 C16.2707273,6.03990909 16.2707273,8.87445455 14.9889091,11.189" id="Stroke-3"></path>
            <path d="M0.682272727,7.45290909 C0.679545455,8.69927273 0.682272727,10.1610909 1.71136364,11.0347273 C2.74136364,11.9092727 3.55772727,11.5483636 4.88954545,11.9865455 C6.22227273,12.4256364 8.08863636,15.1329091 10.1504545,13.9101818 C11.265,13.1183636 11.7904545,11.6238182 11.7904545,7.45290909 C11.7904545,3.282 11.2886364,1.80381818 10.1504545,0.995636364 C8.08863636,-0.226181818 6.22227273,2.48109091 4.88954545,2.91927273 C3.55772727,3.35836364 2.74136364,2.99745455 1.71136364,3.87109091 C0.682272727,4.74472727 0.679545455,6.20654545 0.682272727,7.45290909 Z" id="Stroke-5"></path>
        </g>
    </g>
</svg>