<?xml version="1.0" encoding="UTF-8"?>
<svg width="24px" height="24px" viewBox="0 0 24 24" version="1.1" xmlns="http://www.w3.org/2000/svg" xmlns:xlink="http://www.w3.org/1999/xlink">
    <title>Iconly/Curved/Volume Off</title>
    <g id="Iconly/Curved/Volume-Off" stroke="none" stroke-width="1" fill="none" fill-rule="evenodd" stroke-linecap="round" stroke-linejoin="round">
        <g id="Volume-Off" transform="translate(4.000000, 4.000000)" stroke="#000000" stroke-width="1.5">
            <path d="M4.40353684,12.5533368 C3.32090526,12.3028105 2.58722105,12.4996526 1.68353684,11.7391263 C0.672484211,10.8801789 0.663536842,9.43965263 0.672484211,8.21386316 C0.663536842,6.98807368 0.672484211,5.54754737 1.68353684,4.6886 C2.69458947,3.82965263 3.49985263,4.1786 4.81511579,3.74912632 C6.12143158,3.31965263 7.95564211,0.653336842 9.98669474,1.85228421 C10.8098526,2.43386316 11.2930105,3.38228421 11.4898526,5.46702105" id="Stroke-1"></path>
            <path d="M11.5794158,9.67210526 C11.4631,12.6784211 10.9441526,13.8863158 9.98678421,14.5663158 C8.94888947,15.1836842 7.95573158,14.7810526 7.06994211,14.1815789" id="Stroke-3"></path>
            <line x1="16.2854632" y1="0.670963158" x2="0.940726316" y2="16.0157" id="Stroke-5"></line>
        </g>
    </g>
</svg>