<?xml version="1.0" encoding="UTF-8"?>
<svg width="24px" height="24px" viewBox="0 0 24 24" version="1.1" xmlns="http://www.w3.org/2000/svg" xmlns:xlink="http://www.w3.org/1999/xlink">
    <title>Iconly/Curved/Volume Down</title>
    <g id="Iconly/Curved/Volume-Down" stroke="none" stroke-width="1" fill="none" fill-rule="evenodd" stroke-linecap="round" stroke-linejoin="round">
        <g id="Volume-Down" transform="translate(4.000000, 5.000000)" stroke="#000000" stroke-width="1.5">
            <path d="M14.6559111,3.63457778 C15.9092444,5.90568889 15.9092444,8.67724444 14.6559111,10.9403556" id="Stroke-1"></path>
            <path d="M0.6672,7.28728889 C0.663644444,8.50595556 0.6672,9.93528889 1.67342222,10.7895111 C2.67964444,11.6446222 3.47875556,11.2917333 4.78097778,11.7201778 C6.08408889,12.1495111 7.90897778,14.7966222 9.92497778,13.6010667 C11.0147556,12.8268444 11.5285333,11.3655111 11.5285333,7.28728889 C11.5285333,3.20906667 11.0378667,1.76373333 9.92497778,0.973511111 C7.90897778,-0.221155556 6.08408889,2.42595556 4.78097778,2.8544 C3.47875556,3.28373333 2.67964444,2.93084444 1.67342222,3.78506667 C0.6672,4.63928889 0.663644444,6.06862222 0.6672,7.28728889 Z" id="Stroke-3"></path>
        </g>
    </g>
</svg>